{"accessors" : [{"bufferView" : 0, "byteOffset" : 0, "componentType" : 5123, "count" : 888, "type" : "SCALAR", "max" : [887], "min" : [0]}, {"bufferView" : 1, "byteOffset" : 0, "componentType" : 5126, "count" : 888, "type" : "VEC3", "max" : [-12.89169692993164, 29.887575149536133, 39.370079040527344], "min" : [-59.055118560791016, -23.622066497802734, -39.370079040527344], "name" : "POSITION"}, {"bufferView" : 1, "byteOffset" : 12, "componentType" : 5126, "count" : 888, "type" : "VEC3", "max" : [1.0000044107437134, 1.0000044107437134, 1.0000044107437134], "min" : [-1.0000044107437134, -1.0000044107437134, -1.0000044107437134], "name" : "NORMAL"}, {"bufferView" : 1, "byteOffset" : 24, "componentType" : 5126, "count" : 888, "type" : "VEC3", "max" : [0, 0, 1], "min" : [0, 0, 1], "name" : "COLOR_0"}, {"bufferView" : 0, "byteOffset" : 1776, "componentType" : 5123, "count" : 888, "type" : "SCALAR", "max" : [887], "min" : [0]}, {"bufferView" : 2, "byteOffset" : 0, "componentType" : 5126, "count" : 888, "type" : "VEC3", "max" : [-12.89169692993164, 19.68503761291504, 49.5726203918457], "min" : [-59.055118560791016, -59.05512237548828, -3.937012195587158], "name" : "POSITION"}, {"bufferView" : 2, "byteOffset" : 12, "componentType" : 5126, "count" : 888, "type" : "VEC3", "max" : [1.0000042915344238, 1.0000044107437134, 1.0000044107437134], "min" : [-1.0000044107437134, -1.0000042915344238, -1.0000044107437134], "name" : "NORMAL"}, {"bufferView" : 2, "byteOffset" : 24, "componentType" : 5126, "count" : 888, "type" : "VEC3", "max" : [1, 0, 0], "min" : [1, 0, 0], "name" : "COLOR_0"}, {"bufferView" : 0, "byteOffset" : 3552, "componentType" : 5123, "count" : 1536, "type" : "SCALAR", "max" : [1535], "min" : [0]}, {"bufferView" : 3, "byteOffset" : 0, "componentType" : 5126, "count" : 1536, "type" : "VEC3", "max" : [29.887575149536133, 19.68503761291504, 39.370079040527344], "min" : [-23.62208366394043, -59.05512237548828, -39.370079040527344], "name" : "POSITION"}, {"bufferView" : 3, "byteOffset" : 12, "componentType" : 5126, "count" : 1536, "type" : "VEC3", "max" : [1.0000044107437134, 1.0000044107437134, 1.0000044107437134], "min" : [-1.0000044107437134, -1.0000044107437134, -1.0000042915344238], "name" : "NORMAL"}, {"bufferView" : 3, "byteOffset" : 24, "componentType" : 5126, "count" : 1536, "type" : "VEC3", "max" : [0, 1, 0], "min" : [0, 1, 0], "name" : "COLOR_0"}, {"bufferView" : 0, "byteOffset" : 6624, "componentType" : 5123, "count" : 84, "type" : "SCALAR", "max" : [83], "min" : [0]}, {"bufferView" : 4, "byteOffset" : 0, "componentType" : 5126, "count" : 84, "type" : "VEC3", "max" : [-19.6640567779541, -19.685035705566406, 1.5556812286376953E-05], "min" : [-23.622047424316406, -23.621137619018555, -3.9370079040527344], "name" : "POSITION"}, {"bufferView" : 4, "byteOffset" : 12, "componentType" : 5126, "count" : 84, "type" : "VEC3", "max" : [-0.08338715881109238, -0.0691477358341217, -0.06667538732290268], "min" : [-0.9952116012573242, -0.9841096997261047, -0.9624828696250916], "name" : "NORMAL"}, {"bufferView" : 4, "byteOffset" : 24, "componentType" : 5126, "count" : 84, "type" : "VEC3", "max" : [1, 1, 1], "min" : [1, 1, 1], "name" : "COLOR_0"}], "asset" : {"generator" : "Aspose.3D 22.5.1", "version" : "2.0"}, "buffers" : [{"uri" : "data:application/octet-stream;base64,", "byteLength" : 129068}], "bufferViews" : [{"buffer" : 0, "byteOffset" : 0, "byteLength" : 6792, "target" : 34963}, {"buffer" : 0, "byteOffset" : 6796, "byteLength" : 31968, "byteStride" : 36, "target" : 34962}, {"buffer" : 0, "byteOffset" : 38768, "byteLength" : 31968, "byteStride" : 36, "target" : 34962}, {"buffer" : 0, "byteOffset" : 70740, "byteLength" : 55296, "byteStride" : 36, "target" : 34962}, {"buffer" : 0, "byteOffset" : 126040, "byteLength" : 3024, "byteStride" : 36, "target" : 34962}], "materials" : [{"name" : "03 - Default", "pbrMetallicRoughness" : {"baseColorFactor" : [0, 0, 1, 1], "metallicFactor" : 0, "roughnessFactor" : 0}, "emissiveFactor" : [0, 0, 0], "alphaMode" : "OPAQUE", "doubleSided" : false}, {"name" : "02 - Default", "pbrMetallicRoughness" : {"baseColorFactor" : [1, 0, 0, 1], "metallicFactor" : 0, "roughnessFactor" : 0}, "emissiveFactor" : [0, 0, 0], "alphaMode" : "OPAQUE", "doubleSided" : false}, {"name" : "01 - Default", "pbrMetallicRoughness" : {"baseColorFactor" : [0, 1, 0, 1], "metallicFactor" : 0, "roughnessFactor" : 0}, "emissiveFactor" : [0, 0, 0], "alphaMode" : "OPAQUE", "doubleSided" : false}, {"name" : "04 - Default", "pbrMetallicRoughness" : {"baseColorFactor" : [1, 1, 1, 1], "metallicFactor" : 0, "roughnessFactor" : 0}, "emissiveFactor" : [0, 0, 0], "alphaMode" : "OPAQUE", "doubleSided" : false}], "meshes" : [{"primitives" : [{"attributes" : {"POSITION" : 1, "NORMAL" : 2, "COLOR_0" : 3}, "indices" : 0, "material" : 0, "mode" : 4}, {"attributes" : {"POSITION" : 5, "NORMAL" : 6, "COLOR_0" : 7}, "indices" : 4, "material" : 1, "mode" : 4}, {"attributes" : {"POSITION" : 9, "NORMAL" : 10, "COLOR_0" : 11}, "indices" : 8, "material" : 2, "mode" : 4}, {"attributes" : {"POSITION" : 13, "NORMAL" : 14, "COLOR_0" : 15}, "indices" : 12, "material" : 3, "mode" : 4}], "name" : ""}], "nodes" : [{"matrix" : [1, 0, 0, 0, 0, 0.9999999999999867, 1.6292068427681198E-07, 0, 0, -1.6292068427681198E-07, 0.9999999999999867, 0, 19.6850395202637, 19.6850414276123, 9.5367431640625E-07, 1], "mesh" : 0, "name" : "Trans"}], "scene" : 0, "scenes" : [{"nodes" : [0]}]}