{
    "asset" : {
        "generator" : "Khronos glTF Blender I/O v3.2.40",
        "version" : "2.0"
    },
    "scene" : 0,
    "scenes" : [
        {
            "name" : "Scene",
            "nodes" : [
                0
            ]
        }
    ],
    "nodes" : [
        {
            "mesh" : 0,
            "name" : "Trans",
            "scale" : [
                0.10000000149011612,
                0.10000000149011612,
                0.10000000149011612
            ],
            "translation" : [
                2.1000349521636963,
                1.8422576189041138,
                0
            ]
        }
    ],
    "materials" : [
        {
            "name" : "03 - Default",
            "pbrMetallicRoughness" : {
                "baseColorFactor" : [
                    0,
                    0,
                    1,
                    1
                ],
                "metallicFactor" : 0,
                "roughnessFactor" : 0
            }
        },
        {
            "name" : "02 - Default",
            "pbrMetallicRoughness" : {
                "baseColorFactor" : [
                    1,
                    0,
                    0,
                    1
                ],
                "metallicFactor" : 0,
                "roughnessFactor" : 0
            }
        },
        {
            "name" : "01 - Default",
            "pbrMetallicRoughness" : {
                "baseColorFactor" : [
                    0,
                    1,
                    0,
                    1
                ],
                "metallicFactor" : 0,
                "roughnessFactor" : 0
            }
        },
        {
            "name" : "04 - Default",
            "pbrMetallicRoughness" : {
                "metallicFactor" : 0,
                "roughnessFactor" : 0
            }
        }
    ],
    "meshes" : [
        {
            "name" : "Mesh_0",
            "primitives" : [
                {
                    "attributes" : {
                        "POSITION" : 0,
                        "NORMAL" : 1,
                        "COLOR_0" : 2
                    },
                    "indices" : 3,
                    "material" : 0
                },
                {
                    "attributes" : {
                        "POSITION" : 4,
                        "NORMAL" : 5,
                        "COLOR_0" : 6
                    },
                    "indices" : 3,
                    "material" : 1
                },
                {
                    "attributes" : {
                        "POSITION" : 7,
                        "NORMAL" : 8,
                        "COLOR_0" : 9
                    },
                    "indices" : 10,
                    "material" : 2
                },
                {
                    "attributes" : {
                        "POSITION" : 11,
                        "NORMAL" : 12,
                        "COLOR_0" : 13
                    },
                    "indices" : 14,
                    "material" : 3
                }
            ]
        }
    ],
    "accessors" : [
        {
            "bufferView" : 0,
            "componentType" : 5126,
            "count" : 888,
            "max" : [
                -12.89169692993164,
                29.887575149536133,
                39.370079040527344
            ],
            "min" : [
                -59.055118560791016,
                -23.622066497802734,
                -39.370079040527344
            ],
            "type" : "VEC3"
        },
        {
            "bufferView" : 1,
            "componentType" : 5126,
            "count" : 888,
            "type" : "VEC3"
        },
        {
            "bufferView" : 2,
            "componentType" : 5123,
            "count" : 888,
            "normalized" : true,
            "type" : "VEC4"
        },
        {
            "bufferView" : 3,
            "componentType" : 5123,
            "count" : 888,
            "type" : "SCALAR"
        },
        {
            "bufferView" : 4,
            "componentType" : 5126,
            "count" : 888,
            "max" : [
                -12.89169692993164,
                19.68503761291504,
                49.5726203918457
            ],
            "min" : [
                -59.055118560791016,
                -59.05512237548828,
                -3.937012195587158
            ],
            "type" : "VEC3"
        },
        {
            "bufferView" : 5,
            "componentType" : 5126,
            "count" : 888,
            "type" : "VEC3"
        },
        {
            "bufferView" : 6,
            "componentType" : 5123,
            "count" : 888,
            "normalized" : true,
            "type" : "VEC4"
        },
        {
            "bufferView" : 7,
            "componentType" : 5126,
            "count" : 1536,
            "max" : [
                29.887575149536133,
                19.68503761291504,
                39.370079040527344
            ],
            "min" : [
                -23.62208366394043,
                -59.05512237548828,
                -39.370079040527344
            ],
            "type" : "VEC3"
        },
        {
            "bufferView" : 8,
            "componentType" : 5126,
            "count" : 1536,
            "type" : "VEC3"
        },
        {
            "bufferView" : 9,
            "componentType" : 5123,
            "count" : 1536,
            "normalized" : true,
            "type" : "VEC4"
        },
        {
            "bufferView" : 10,
            "componentType" : 5123,
            "count" : 1536,
            "type" : "SCALAR"
        },
        {
            "bufferView" : 11,
            "componentType" : 5126,
            "count" : 84,
            "max" : [
                -19.6640567779541,
                -19.685035705566406,
                1.5556812286376953e-05
            ],
            "min" : [
                -23.622047424316406,
                -23.621137619018555,
                -3.9370079040527344
            ],
            "type" : "VEC3"
        },
        {
            "bufferView" : 12,
            "componentType" : 5126,
            "count" : 84,
            "type" : "VEC3"
        },
        {
            "bufferView" : 13,
            "componentType" : 5123,
            "count" : 84,
            "normalized" : true,
            "type" : "VEC4"
        },
        {
            "bufferView" : 14,
            "componentType" : 5123,
            "count" : 84,
            "type" : "SCALAR"
        }
    ],
    "bufferViews" : [
        {
            "buffer" : 0,
            "byteLength" : 10656,
            "byteOffset" : 0
        },
        {
            "buffer" : 0,
            "byteLength" : 10656,
            "byteOffset" : 10656
        },
        {
            "buffer" : 0,
            "byteLength" : 7104,
            "byteOffset" : 21312
        },
        {
            "buffer" : 0,
            "byteLength" : 1776,
            "byteOffset" : 28416
        },
        {
            "buffer" : 0,
            "byteLength" : 10656,
            "byteOffset" : 30192
        },
        {
            "buffer" : 0,
            "byteLength" : 10656,
            "byteOffset" : 40848
        },
        {
            "buffer" : 0,
            "byteLength" : 7104,
            "byteOffset" : 51504
        },
        {
            "buffer" : 0,
            "byteLength" : 18432,
            "byteOffset" : 58608
        },
        {
            "buffer" : 0,
            "byteLength" : 18432,
            "byteOffset" : 77040
        },
        {
            "buffer" : 0,
            "byteLength" : 12288,
            "byteOffset" : 95472
        },
        {
            "buffer" : 0,
            "byteLength" : 3072,
            "byteOffset" : 107760
        },
        {
            "buffer" : 0,
            "byteLength" : 1008,
            "byteOffset" : 110832
        },
        {
            "buffer" : 0,
            "byteLength" : 1008,
            "byteOffset" : 111840
        },
        {
            "buffer" : 0,
            "byteLength" : 672,
            "byteOffset" : 112848
        },
        {
            "buffer" : 0,
            "byteLength" : 168,
            "byteOffset" : 113520
        }
    ],
    "buffers" : [
        {
            "byteLength" : 113688,
            "uri" : "data:application/octet-stream;base64,"
        }
    ]
}
